<svg id="visual" viewBox="0 0 1280 600" width="1280" height="600" xmlns="http://www.w3.org/2000/svg" xmlns:xlink="http://www.w3.org/1999/xlink" version="1.1"><path d="M0 294L42.7 299.5C85.3 305 170.7 316 256 315.3C341.3 314.7 426.7 302.3 512 296.7C597.3 291 682.7 292 768 292.3C853.3 292.7 938.7 292.3 1024 295.5C1109.3 298.7 1194.7 305.3 1237.3 308.7L1280 312L1280 601L1237.3 601C1194.7 601 1109.3 601 1024 601C938.7 601 853.3 601 768 601C682.7 601 597.3 601 512 601C426.7 601 341.3 601 256 601C170.7 601 85.3 601 42.7 601L0 601Z" fill="#222428" stroke-linecap="round" stroke-linejoin="miter"></path></svg>